<svg width="24" height="24" viewBox="0 0 24 24" fill="none" xmlns="http://www.w3.org/2000/svg">
<rect x="2.75" y="2.75" width="18.5" height="18.5" rx="9.25" stroke="#0D233E" stroke-width="1.5"/>
<path d="M12.127 7.8623C12.2521 7.88722 12.3684 7.9485 12.46 8.04004C12.5819 8.16194 12.6504 8.32761 12.6504 8.5V11.3496H15.5C15.6724 11.3496 15.8381 11.4181 15.96 11.54C16.0819 11.6619 16.1504 11.8276 16.1504 12C16.1504 12.1724 16.0819 12.3381 15.96 12.46C15.8381 12.5819 15.6724 12.6504 15.5 12.6504H12.6504V15.5C12.6504 15.6724 12.5819 15.8381 12.46 15.96C12.3381 16.0819 12.1724 16.1504 12 16.1504C11.8276 16.1504 11.6619 16.0819 11.54 15.96C11.4181 15.8381 11.3496 15.6724 11.3496 15.5V12.6504H8.5C8.32761 12.6504 8.16194 12.5819 8.04004 12.46C7.91814 12.3381 7.84961 12.1724 7.84961 12L7.8623 11.873C7.88722 11.7479 7.9485 11.6316 8.04004 11.54C8.16194 11.4181 8.32761 11.3496 8.5 11.3496H11.3496V8.5C11.3496 8.32761 11.4181 8.16194 11.54 8.04004C11.6619 7.91814 11.8276 7.84961 12 7.84961L12.127 7.8623Z" fill="#0D233E" stroke="#0D233E" stroke-width="0.3"/>
</svg>
