<svg width="55" height="72" viewBox="0 0 55 72" fill="none" xmlns="http://www.w3.org/2000/svg">
<rect x="0.75" y="9.75" width="41.6053" height="61.5" rx="3.25" stroke="#0D233E" stroke-width="1.5"/>
<path d="M8.8464 22.8417C8.99943 22.9947 9.20078 23.0753 9.41824 23.0753H9.49878C9.7404 23.0511 9.95786 22.9222 10.0867 22.7208L13.3084 17.8869C13.558 17.5163 13.4533 17.0167 13.0828 16.767C12.7124 16.5172 12.213 16.622 11.9633 16.9926L9.28937 21.0048L8.37121 20.0863C8.0571 19.7721 7.54969 19.7721 7.23558 20.0863C6.92147 20.4005 6.92147 20.9081 7.23558 21.2223L8.8464 22.8336V22.8417Z" fill="#0D233E"/>
<line x1="19.2773" y1="18.8535" x2="34.9996" y2="18.8535" stroke="#0D233E" stroke-width="2" stroke-linecap="round"/>
<line x1="19.2773" y1="32.4844" x2="34.9996" y2="32.4844" stroke="#0D233E" stroke-width="2" stroke-linecap="round"/>
<line x1="19.2773" y1="46.1172" x2="34.9996" y2="46.1172" stroke="#0D233E" stroke-width="2" stroke-linecap="round"/>
<line x1="19.2773" y1="59.748" x2="34.9996" y2="59.748" stroke="#0D233E" stroke-width="2" stroke-linecap="round"/>
<circle cx="40" cy="15" r="15" fill="#F27024"/>
<path d="M39.2842 19.0703C39.797 19.0704 40.2129 19.4862 40.2129 19.999C40.2128 20.5117 39.7969 20.9277 39.2842 20.9277C38.7714 20.9277 38.3555 20.5118 38.3555 19.999C38.3555 19.4862 38.7713 19.0703 39.2842 19.0703Z" fill="#FDFDFD" stroke="#FDFDFD"/>
<path d="M39.2842 7.64258C39.5302 7.64262 39.7664 7.74017 39.9404 7.91406C40.1146 8.0882 40.2129 8.32502 40.2129 8.57129V15.7139C40.2129 15.9601 40.1146 16.197 39.9404 16.3711C39.7664 16.545 39.5302 16.6425 39.2842 16.6426C39.0379 16.6426 38.8011 16.5452 38.627 16.3711C38.4528 16.197 38.3555 15.9601 38.3555 15.7139V8.57129C38.3555 8.32502 38.4528 8.0882 38.627 7.91406C38.8011 7.73992 39.0379 7.64258 39.2842 7.64258Z" fill="#FDFDFD" stroke="#FDFDFD"/>
</svg>
