<svg width="29" height="31" viewBox="0 0 29 31" fill="none" xmlns="http://www.w3.org/2000/svg">
<path d="M25.0104 14.7189H3.57252C2.42917 14.7189 1.48828 13.7293 1.48828 12.5267V8.36761C1.48828 7.51576 2.04802 6.65139 2.79835 6.3382L13.5173 1.82843C13.9699 1.64052 14.6131 1.64052 15.0656 1.82843L25.7846 6.3382C26.5349 6.65139 27.0946 7.52829 27.0946 8.36761V12.5267C27.0946 13.7293 26.1538 14.7189 25.0104 14.7189ZM14.2915 3.5572C14.2438 3.5572 14.1962 3.55713 14.1724 3.56966L3.4653 8.07951C3.39384 8.11709 3.27477 8.27992 3.27477 8.36761V12.5267C3.27477 12.702 3.40578 12.8398 3.57252 12.8398H25.0104C25.1771 12.8398 25.3082 12.702 25.3082 12.5267V8.36761C25.3082 8.27992 25.201 8.11709 25.1176 8.07951L14.3987 3.56966C14.3749 3.55713 14.3391 3.5572 14.2915 3.5572Z" fill="#0D233E"/>
<path d="M26.2014 28.4994H2.38153C1.89322 28.4994 1.48828 28.0734 1.48828 27.5598V23.8016C1.48828 22.599 2.42917 21.6094 3.57252 21.6094H25.0104C26.1538 21.6094 27.0946 22.599 27.0946 23.8016V27.5598C27.0946 28.0734 26.6897 28.4994 26.2014 28.4994ZM3.27477 26.6203H25.3082V23.8016C25.3082 23.6263 25.1771 23.4885 25.0104 23.4885H3.57252C3.40578 23.4885 3.27477 23.6263 3.27477 23.8016V26.6203Z" fill="#0D233E"/>
<path d="M4.76434 23.488C4.27603 23.488 3.87109 23.0621 3.87109 22.5484V13.7794C3.87109 13.2658 4.27603 12.8398 4.76434 12.8398C5.25265 12.8398 5.65758 13.2658 5.65758 13.7794V22.5484C5.65758 23.0621 5.25265 23.488 4.76434 23.488Z" fill="#0D233E"/>
<path d="M9.52606 23.488C9.03775 23.488 8.63281 23.0621 8.63281 22.5484V13.7794C8.63281 13.2658 9.03775 12.8398 9.52606 12.8398C10.0144 12.8398 10.4193 13.2658 10.4193 13.7794V22.5484C10.4193 23.0621 10.0144 23.488 9.52606 23.488Z" fill="#0D233E"/>
<path d="M14.2917 23.488C13.8034 23.488 13.3984 23.0621 13.3984 22.5484V13.7794C13.3984 13.2658 13.8034 12.8398 14.2917 12.8398C14.78 12.8398 15.1849 13.2658 15.1849 13.7794V22.5484C15.1849 23.0621 14.78 23.488 14.2917 23.488Z" fill="#0D233E"/>
<path d="M19.0573 23.488C18.569 23.488 18.1641 23.0621 18.1641 22.5484V13.7794C18.1641 13.2658 18.569 12.8398 19.0573 12.8398C19.5456 12.8398 19.9506 13.2658 19.9506 13.7794V22.5484C19.9506 23.0621 19.5456 23.488 19.0573 23.488Z" fill="#0D233E"/>
<path d="M23.819 23.488C23.3307 23.488 22.9258 23.0621 22.9258 22.5484V13.7794C22.9258 13.2658 23.3307 12.8398 23.819 12.8398C24.3073 12.8398 24.7123 13.2658 24.7123 13.7794V22.5484C24.7123 23.0621 24.3073 23.488 23.819 23.488Z" fill="#0D233E"/>
<path d="M27.392 28.5002H1.19012C0.701813 28.5002 0.296875 28.0743 0.296875 27.5606C0.296875 27.047 0.701813 26.6211 1.19012 26.6211H27.392C27.8803 26.6211 28.2852 27.047 28.2852 27.5606C28.2852 28.0743 27.8803 28.5002 27.392 28.5002Z" fill="#0D233E"/>
<path d="M14.293 11.5884C12.8162 11.5884 11.6133 10.3232 11.6133 8.7698C11.6133 7.21642 12.8162 5.95117 14.293 5.95117C15.7698 5.95117 16.9728 7.21642 16.9728 8.7698C16.9728 10.3232 15.7698 11.5884 14.293 11.5884ZM14.293 7.83026C13.8047 7.83026 13.3998 8.25618 13.3998 8.7698C13.3998 9.28342 13.8047 9.70934 14.293 9.70934C14.7813 9.70934 15.1863 9.28342 15.1863 8.7698C15.1863 8.25618 14.7813 7.83026 14.293 7.83026Z" fill="#0D233E"/>
</svg>
