<svg width="24" height="24" viewBox="0 0 24 24" fill="none" xmlns="http://www.w3.org/2000/svg">
<g clip-path="url(#clip0_2259_3546)">
<path d="M0.726562 5.60092V7.09183C0.726562 7.31001 0.872017 7.45547 1.0902 7.45547H2.94474V7.92819C2.94474 8.47365 3.27202 8.98274 3.78111 9.16456V19.3464C3.30838 19.5282 2.94474 19.9646 2.94474 20.51V21.1282C2.21747 21.2373 1.67202 21.8555 1.67202 22.6191V22.91H1.52656C1.30838 22.91 1.16293 23.0555 1.16293 23.2736C1.16293 23.4918 1.30838 23.6373 1.52656 23.6373H22.6902C22.9084 23.6373 23.0538 23.4918 23.0538 23.2736C23.0538 23.0555 22.9084 22.91 22.6902 22.91H22.5447V22.6191C22.5447 21.8918 21.9993 21.2736 21.272 21.1282V20.51C21.272 19.9646 20.9447 19.5282 20.4357 19.3464V9.16456C20.9084 8.94638 21.272 8.47365 21.272 7.92819V7.45547H22.9084C23.1266 7.45547 23.272 7.31001 23.272 7.09183V5.60092C23.272 5.38274 23.1266 5.23729 22.9084 5.23729H21.9629L12.7993 0.546378C12.2902 0.291832 11.7084 0.291832 11.1993 0.546378L2.03565 5.23729H1.0902C0.908381 5.23729 0.726562 5.38274 0.726562 5.60092ZM3.70838 7.45547H7.96293V7.92819C7.96293 8.25547 7.70838 8.54638 7.34474 8.54638H4.2902C3.96293 8.54638 3.67202 8.25547 3.67202 7.92819V7.45547H3.70838ZM7.12656 9.31001V19.2736H4.50838V9.31001H7.12656ZM3.70838 20.5464C3.70838 20.2918 3.8902 20.0737 4.10838 20.0373H7.52656C7.78111 20.0737 7.92656 20.2918 7.92656 20.5464V21.1282H3.70838V20.5464ZM21.8175 22.6191V22.91H2.43565V22.6191C2.43565 22.1827 2.79929 21.8555 3.19929 21.8555H21.0175C21.4538 21.8555 21.8175 22.2191 21.8175 22.6191ZM20.5447 21.1282H16.2902V20.5464C16.2902 20.2918 16.472 20.0737 16.6902 20.0373H20.1084C20.3629 20.0737 20.5084 20.2918 20.5084 20.5464V21.1282H20.5447ZM17.1266 19.2736V9.31001H19.7447V19.2736H17.1266ZM20.5447 7.92819C20.5447 8.25547 20.2902 8.54638 19.9266 8.54638H16.872C16.5447 8.54638 16.2538 8.25547 16.2538 7.92819V7.45547H20.5084V7.92819H20.5447ZM16.3993 9.16456V19.3464C15.9266 19.5282 15.5629 19.9646 15.5629 20.51V21.0918H8.6902V20.51C8.6902 19.9646 8.36293 19.5282 7.85384 19.3464V9.16456C8.32656 8.94638 8.6902 8.47365 8.6902 7.92819V7.45547H15.5629V7.92819C15.5629 8.51001 15.8902 8.98274 16.3993 9.16456ZM1.45384 5.96456H2.10838C2.18111 5.96456 2.21747 5.96456 2.2902 5.9282L11.5266 1.20092C11.8175 1.05547 12.1811 1.05547 12.472 1.20092L21.7084 5.9282C21.7447 5.96456 21.8175 5.96456 21.8902 5.96456H22.5447V6.7282H1.45384V5.96456Z" fill="white"/>
</g>
<defs>
<clipPath id="clip0_2259_3546">
<rect width="24" height="24" fill="white"/>
</clipPath>
</defs>
</svg>
