<svg width="36" height="36" viewBox="0 0 36 36" fill="none" xmlns="http://www.w3.org/2000/svg">
<path d="M28.5 20.0391H3C2.385 20.0391 1.875 19.5291 1.875 18.9141C1.875 18.2991 2.385 17.7891 3 17.7891H28.5C29.115 17.7891 29.625 18.2991 29.625 18.9141C29.625 19.5291 29.115 20.0391 28.5 20.0391Z" fill="#0D233E"/>
<path d="M22.83 32.6242H8.67004C3.52504 32.6242 1.875 30.9892 1.875 25.9042V15.4192C1.875 11.3842 2.79003 8.99922 7.44003 8.72922C7.83003 8.71422 8.23504 8.69922 8.67004 8.69922H22.83C27.975 8.69922 29.625 10.3342 29.625 15.4192V26.1442C29.565 31.0492 27.915 32.6242 22.83 32.6242ZM8.67004 10.9492C8.26504 10.9492 7.89004 10.9642 7.54504 10.9792C4.86004 11.1442 4.125 11.7142 4.125 15.4192V25.9042C4.125 29.7442 4.75504 30.3742 8.67004 30.3742H22.83C26.7 30.3742 27.33 29.7742 27.375 26.1292V15.4192C27.375 11.5792 26.745 10.9492 22.83 10.9492H8.67004Z" fill="#0D233E"/>
<path d="M28.5039 27.27C28.2189 27.27 27.9339 27.165 27.7389 26.97C27.5139 26.76 27.3789 26.46 27.3789 26.145V15.42C27.3789 11.58 26.7489 10.95 22.8339 10.95H8.67395C8.26895 10.95 7.89395 10.965 7.54895 10.98C7.24895 10.995 6.94888 10.875 6.72388 10.665C6.49888 10.455 6.37891 10.155 6.37891 9.84C6.43891 4.95 8.08895 3.375 13.1739 3.375H27.3339C32.4789 3.375 34.1289 5.01 34.1289 10.095V20.58C34.1289 24.615 33.2139 27 28.5639 27.27C28.5489 27.27 28.5189 27.27 28.5039 27.27ZM8.67395 8.7H22.8339C27.9789 8.7 29.6289 10.335 29.6289 15.42V24.9C31.3689 24.585 31.8789 23.685 31.8789 20.58V10.095C31.8789 6.255 31.2489 5.625 27.3339 5.625H13.1739C9.75395 5.625 8.86895 6.09 8.67395 8.7Z" fill="#0D233E"/>
<path d="M10.4394 27.8418H7.85937C7.24437 27.8418 6.73438 27.3318 6.73438 26.7168C6.73438 26.1018 7.24437 25.5918 7.85937 25.5918H10.4394C11.0544 25.5918 11.5644 26.1018 11.5644 26.7168C11.5644 27.3318 11.0694 27.8418 10.4394 27.8418Z" fill="#0D233E"/>
<path d="M18.8163 27.8418H13.6562C13.0412 27.8418 12.5312 27.3318 12.5312 26.7168C12.5312 26.1018 13.0412 25.5918 13.6562 25.5918H18.8163C19.4313 25.5918 19.9413 26.1018 19.9413 26.7168C19.9413 27.3318 19.4463 27.8418 18.8163 27.8418Z" fill="#0D233E"/>
</svg>
