<svg width="24" height="24" viewBox="0 0 24 24" fill="none" xmlns="http://www.w3.org/2000/svg">
<path d="M6.69922 8.99961C6.88255 8.81628 7.11588 8.72461 7.39922 8.72461C7.68255 8.72461 7.91589 8.81628 8.09922 8.99961L11.9992 12.8996L15.8992 8.99961C16.0826 8.81628 16.3159 8.72461 16.5992 8.72461C16.8826 8.72461 17.1159 8.81628 17.2992 8.99961C17.4826 9.18294 17.5742 9.41628 17.5742 9.69961C17.5742 9.98294 17.4826 10.2163 17.2992 10.3996L12.6992 14.9996C12.5992 15.0996 12.4909 15.1706 12.3742 15.2126C12.2576 15.2539 12.1326 15.2746 11.9992 15.2746C11.8659 15.2746 11.7409 15.2539 11.6242 15.2126C11.5076 15.1706 11.3992 15.0996 11.2992 14.9996L6.69922 10.3996C6.51589 10.2163 6.42422 9.98294 6.42422 9.69961C6.42422 9.41628 6.51589 9.18294 6.69922 8.99961Z" fill="#0D233E"/>
</svg>
