<svg width="24" height="24" viewBox="0 0 24 24" fill="none" xmlns="http://www.w3.org/2000/svg">
<path d="M23.3002 7.20859C23.3002 5.88533 22.2234 4.80859 20.9002 4.80859H3.10313C1.77986 4.80859 0.703125 5.88533 0.703125 7.20859V16.7917C0.703125 18.115 1.77986 19.1917 3.10313 19.1917H20.9002C22.2234 19.1917 23.3002 18.115 23.3002 16.7917V7.20859ZM22.3402 16.7917C22.3402 17.5858 21.6942 18.2317 20.9002 18.2317H3.10313C2.30906 18.2317 1.66313 17.5858 1.66313 16.7917V7.20859C1.66313 6.41453 2.30906 5.76859 3.10313 5.76859H20.9002C21.6942 5.76859 22.3402 6.41453 22.3402 7.20859V16.7917Z" fill="white"/>
<path d="M8.37596 6.8974C7.91948 6.8974 7.48787 7.00175 7.09921 7.18324C6.70067 6.99844 6.26632 6.89648 5.82452 6.89648C4.15484 6.89648 2.79688 8.25772 2.79688 9.93071C2.79688 11.6004 4.15484 12.9584 5.82452 12.9584C6.26598 12.9584 6.69932 12.8569 7.09686 12.6728C7.48609 12.855 7.91852 12.9597 8.37596 12.9597C10.047 12.9597 11.4069 11.5999 11.4069 9.92884C11.4069 8.25724 10.047 6.8974 8.37596 6.8974ZM3.75688 9.93071C3.75688 8.78692 4.68452 7.85648 5.82452 7.85648C5.93353 7.85648 6.04 7.86714 6.14516 7.88332C5.64976 8.42317 5.34452 9.1401 5.34452 9.92884C5.34452 10.7163 5.64908 11.4324 6.14339 11.9719C6.03884 11.9879 5.93291 11.9984 5.82452 11.9984C4.68452 11.9984 3.75688 11.0707 3.75688 9.93071ZM8.37596 11.9997C7.23361 11.9997 6.30452 11.0707 6.30452 9.92884C6.30452 8.78648 7.23361 7.8574 8.37596 7.8574C9.51783 7.8574 10.4469 8.78648 10.4469 9.92884C10.4469 11.0707 9.51783 11.9997 8.37596 11.9997ZM20.0005 15.2116H3.51126C3.24596 15.2116 3.03126 15.4263 3.03126 15.6916C3.03126 15.9569 3.24596 16.1716 3.51126 16.1716H20.0005C20.2658 16.1716 20.4805 15.9569 20.4805 15.6916C20.4805 15.4263 20.2658 15.2116 20.0005 15.2116Z" fill="white"/>
</svg>
