<svg width="31" height="24" viewBox="0 0 31 24" fill="none" xmlns="http://www.w3.org/2000/svg">
<path d="M21.871 13.2664H6.05705C5.67565 13.2664 5.35938 12.9502 5.35938 12.5688C5.35938 12.1874 5.67565 11.8711 6.05705 11.8711H21.871C22.2524 11.8711 22.5687 12.1874 22.5687 12.5688C22.5687 12.9502 22.2524 13.2664 21.871 13.2664Z" fill="#0D233E"/>
<path d="M18.3547 21.0696H9.57336C6.38266 21.0696 5.35938 20.0557 5.35938 16.9022V10.3999C5.35938 7.89754 5.92684 6.41847 8.81056 6.25103C9.05242 6.24172 9.30359 6.23242 9.57336 6.23242H18.3547C21.5454 6.23242 22.5687 7.24637 22.5687 10.3999V17.051C22.5315 20.0929 21.5082 21.0696 18.3547 21.0696ZM9.57336 7.62777C9.32219 7.62777 9.08963 7.63707 8.87568 7.64638C7.21056 7.7487 6.75472 8.10219 6.75472 10.3999V16.9022C6.75472 19.2836 7.14545 19.6743 9.57336 19.6743H18.3547C20.7547 19.6743 21.1454 19.3022 21.1733 17.0417V10.3999C21.1733 8.01847 20.7826 7.62777 18.3547 7.62777H9.57336Z" fill="#0D233E"/>
<path d="M21.8694 17.7502C21.6926 17.7502 21.5159 17.6851 21.3949 17.5642C21.2554 17.434 21.1717 17.2479 21.1717 17.0526V10.4014C21.1717 8.02001 20.781 7.62931 18.3531 7.62931H9.57172C9.32056 7.62931 9.088 7.63862 8.87405 7.64792C8.688 7.65722 8.50191 7.5828 8.36237 7.45257C8.22284 7.32234 8.14844 7.13629 8.14844 6.94094C8.18565 3.90839 9.20893 2.93164 12.3624 2.93164H21.1438C24.3345 2.93164 25.3577 3.94559 25.3577 7.09908V13.6014C25.3577 16.1037 24.7903 17.5828 21.9066 17.7502C21.8973 17.7502 21.8787 17.7502 21.8694 17.7502ZM9.57172 6.23397H18.3531C21.5438 6.23397 22.567 7.24792 22.567 10.4014V16.2805C23.6461 16.0851 23.9624 15.527 23.9624 13.6014V7.09908C23.9624 4.71769 23.5717 4.32699 21.1438 4.32699H12.3624C10.2415 4.32699 9.69265 4.61536 9.57172 6.23397Z" fill="#0D233E"/>
</svg>
