<svg width="24" height="24" viewBox="0 0 24 24" fill="none" xmlns="http://www.w3.org/2000/svg">
<g clip-path="url(#clip0_103_1193)">
<path d="M9.82324 2.40039C10.6424 2.40059 11.3086 3.0667 11.3086 3.88574V7.44824C11.3084 8.26725 10.6423 8.93339 9.82324 8.93359H3.88574C3.0667 8.93359 2.40059 8.26737 2.40039 7.44824V3.88574C2.40039 3.06658 3.06658 2.40039 3.88574 2.40039H9.82324ZM3.88574 3.78711C3.83182 3.78711 3.78711 3.83182 3.78711 3.88574V7.44824C3.78731 7.50219 3.83199 7.5459 3.88574 7.5459H9.82324C9.87702 7.5457 9.9207 7.50202 9.9209 7.44824V3.88574C9.9209 3.83199 9.87719 3.78731 9.82324 3.78711H3.88574Z" fill="#0D233E" stroke="#0D233E" stroke-width="0.2"/>
<path d="M9.82324 10.3184C10.6424 10.3186 11.3086 10.9845 11.3086 11.8037V20.1162C11.3085 20.9351 10.6423 21.6014 9.82324 21.6016H3.88574C3.06666 21.6016 2.40051 20.9353 2.40039 20.1162V11.8037C2.40039 10.9844 3.06658 10.3184 3.88574 10.3184H9.82324ZM3.88574 11.7051C3.83186 11.7051 3.78711 11.7496 3.78711 11.8037V20.1162C3.78723 20.17 3.83189 20.2139 3.88574 20.2139H9.82324C9.87711 20.2137 9.92077 20.1699 9.9209 20.1162V11.8037C9.9209 11.7498 9.87714 11.7053 9.82324 11.7051H3.88574Z" fill="#0D233E" stroke="#0D233E" stroke-width="0.2"/>
<path d="M20.1123 15.0684C20.9314 15.0685 21.5977 15.7345 21.5977 16.5537V20.1162C21.5975 20.9352 20.9313 21.6014 20.1123 21.6016H14.1748C13.3556 21.6016 12.6896 20.9353 12.6895 20.1162V16.5537C12.6895 15.7344 13.3555 15.0684 14.1748 15.0684H20.1123ZM14.1748 16.4551C14.1207 16.4551 14.0762 16.4996 14.0762 16.5537V20.1162C14.0763 20.17 14.1208 20.2139 14.1748 20.2139H20.1123C20.166 20.2137 20.2098 20.17 20.21 20.1162V16.5537C20.21 16.4997 20.1661 16.4552 20.1123 16.4551H14.1748Z" fill="#0D233E" stroke="#0D233E" stroke-width="0.2"/>
<path d="M20.1123 2.40039C20.9314 2.40051 21.5977 3.06666 21.5977 3.88574V12.1982C21.5975 13.0173 20.9312 13.6835 20.1123 13.6836H14.1748C13.3556 13.6836 12.6897 13.0174 12.6895 12.1982V3.88574C12.6895 3.06658 13.3555 2.40039 14.1748 2.40039H20.1123ZM14.1748 3.78711C14.1207 3.78711 14.0762 3.83186 14.0762 3.88574V12.1982C14.0764 12.2521 14.1209 12.2959 14.1748 12.2959H20.1123C20.166 12.2958 20.2098 12.2521 20.21 12.1982V3.88574C20.21 3.83189 20.1661 3.78723 20.1123 3.78711H14.1748Z" fill="#0D233E" stroke="#0D233E" stroke-width="0.2"/>
</g>
<defs>
<clipPath id="clip0_103_1193">
<rect width="19" height="19" fill="white" transform="translate(2.5 2.5)"/>
</clipPath>
</defs>
</svg>
