<svg width="30" height="30" viewBox="0 0 30 30" fill="none" xmlns="http://www.w3.org/2000/svg">
<path d="M8.75 3.9375H21.25C23.4363 3.9375 25.092 4.56469 26.2012 5.67383C27.3103 6.78296 27.9375 8.43866 27.9375 10.625V19.375C27.9375 21.5613 27.3103 23.217 26.2012 24.3262C25.092 25.4353 23.4363 26.0625 21.25 26.0625H8.75C6.56366 26.0625 4.90796 25.4353 3.79883 24.3262C2.68969 23.217 2.0625 21.5613 2.0625 19.375V10.625C2.0625 8.43866 2.68969 6.78296 3.79883 5.67383C4.90796 4.56469 6.56366 3.9375 8.75 3.9375ZM8.75 4.8125C6.88901 4.8125 5.40928 5.26455 4.39941 6.27441C3.38955 7.28428 2.9375 8.76401 2.9375 10.625V19.375C2.9375 21.236 3.38955 22.7157 4.39941 23.7256C5.40928 24.7354 6.88901 25.1875 8.75 25.1875H21.25C23.111 25.1875 24.5907 24.7354 25.6006 23.7256C26.6104 22.7157 27.0625 21.236 27.0625 19.375V10.625C27.0625 8.76401 26.6104 7.28428 25.6006 6.27441C24.5907 5.26455 23.111 4.8125 21.25 4.8125H8.75Z" fill="#0D233E" stroke="#0D233E"/>
<path d="M15 10.8125C17.3114 10.8125 19.1875 12.6886 19.1875 15C19.1875 17.3114 17.3114 19.1875 15 19.1875C12.6886 19.1875 10.8125 17.3114 10.8125 15C10.8125 12.6886 12.6886 10.8125 15 10.8125ZM15 11.6875C13.1739 11.6875 11.6875 13.1739 11.6875 15C11.6875 16.8261 13.1739 18.3125 15 18.3125C16.8261 18.3125 18.3125 16.8261 18.3125 15C18.3125 13.1739 16.8261 11.6875 15 11.6875Z" fill="#0D233E" stroke="#0D233E"/>
<path d="M6.875 11.4375C7.11136 11.4375 7.3125 11.6386 7.3125 11.875V18.125C7.3125 18.3614 7.11136 18.5625 6.875 18.5625C6.63864 18.5625 6.4375 18.3614 6.4375 18.125V11.875C6.4375 11.6386 6.63864 11.4375 6.875 11.4375Z" fill="#0D233E" stroke="#0D233E"/>
<path d="M23.125 11.4375C23.3614 11.4375 23.5625 11.6386 23.5625 11.875V18.125C23.5625 18.3614 23.3614 18.5625 23.125 18.5625C22.8886 18.5625 22.6875 18.3614 22.6875 18.125V11.875C22.6875 11.6386 22.8886 11.4375 23.125 11.4375Z" fill="#0D233E" stroke="#0D233E"/>
</svg>
