<svg width="38" height="38" viewBox="0 0 38 38" fill="none" xmlns="http://www.w3.org/2000/svg">
<path d="M31.9712 30.6014H29.8091V19.9843C29.8091 14.1688 24.9596 9.4375 18.9988 9.4375C13.0379 9.4375 8.18842 14.1688 8.18842 19.9843V30.6014H6.02635C5.42933 30.6014 4.94531 31.0736 4.94531 31.6561V35.9451C4.94531 36.5276 5.42933 36.9998 6.02635 36.9998H31.9712C32.5682 36.9998 33.0522 36.5276 33.0522 35.9451V31.6561C33.0522 31.0736 32.5682 30.6014 31.9712 30.6014ZM10.3505 19.9843C10.3505 15.3319 14.2301 11.5469 18.9988 11.5469C23.7674 11.5469 27.6471 15.3319 27.6471 19.9843V30.6014H10.3505V19.9843ZM30.8902 34.8904H7.10738V32.7108H30.8902V34.8904Z" fill="#0D233E" stroke="#0D233E" stroke-width="0.3"/>
<path d="M18.9287 7.32808C19.5257 7.32808 20.0097 6.85586 20.0097 6.2734V2.05468C20.0097 1.47222 19.5257 1 18.9287 1C18.3317 1 17.8477 1.47222 17.8477 2.05468V6.2734C17.8477 6.85586 18.3317 7.32808 18.9287 7.32808Z" fill="#0D233E" stroke="#0D233E" stroke-width="0.3"/>
<path d="M10.4165 8.81965C10.7159 9.32568 11.3776 9.49605 11.8932 9.20566C12.4103 8.91443 12.5874 8.26939 12.2889 7.76497L10.1268 4.11149C9.8282 3.607 9.16711 3.43424 8.65009 3.72547C8.133 4.0167 7.95585 4.66175 8.25443 5.16617L10.4165 8.81965Z" fill="#0D233E" stroke="#0D233E" stroke-width="0.3"/>
<path d="M6.76226 14.2619C7.06084 13.7575 6.8837 13.1124 6.3666 12.8212L2.62175 10.7118C2.10466 10.4205 1.44349 10.5934 1.14506 11.0978C0.846474 11.6023 1.02362 12.2473 1.54072 12.5385L5.28557 14.6479C5.80036 14.9379 6.46245 14.7686 6.76226 14.2619Z" fill="#0D233E" stroke="#0D233E" stroke-width="0.3"/>
<path d="M26.1071 9.20572C26.6219 9.49576 27.284 9.32631 27.5838 8.81971L29.7459 5.16623C30.0445 4.66181 29.8673 4.01677 29.3502 3.72554C28.8332 3.43416 28.172 3.60706 27.8735 4.11155L25.7115 7.76503C25.4129 8.26945 25.59 8.91449 26.1071 9.20572Z" fill="#0D233E" stroke="#0D233E" stroke-width="0.3"/>
<path d="M36.856 11.0978C36.5574 10.5933 35.8964 10.4206 35.3793 10.7118L31.6345 12.8211C31.1174 13.1124 30.9402 13.7574 31.2388 14.2618C31.5383 14.7679 32.1999 14.9382 32.7155 14.6478L36.4604 12.5385C36.9774 12.2472 37.1546 11.6023 36.856 11.0978Z" fill="#0D233E" stroke="#0D233E" stroke-width="0.3"/>
</svg>
