<svg width="36" height="36" viewBox="0 0 36 36" fill="none" xmlns="http://www.w3.org/2000/svg">
<path d="M18.5971 16.7995V16.3225C19.7053 16.0513 20.5333 15.0565 20.5333 13.8661C20.5324 13.1938 20.2649 12.5494 19.7894 12.074C19.314 11.5987 18.6694 11.3313 17.9971 11.3305C17.6428 11.3301 17.3031 11.189 17.0526 10.9384C16.8021 10.6878 16.6613 10.3481 16.6609 9.99374C16.6609 9.25754 17.2603 8.65814 17.9971 8.65814C18.7339 8.65814 19.3333 9.25754 19.3333 9.99374C19.3333 10.1529 19.3966 10.3055 19.5091 10.418C19.6216 10.5305 19.7742 10.5937 19.9333 10.5937C20.0925 10.5937 20.2451 10.5305 20.3576 10.418C20.4701 10.3055 20.5333 10.1529 20.5333 9.99374C20.5333 8.80334 19.7053 7.80914 18.5971 7.53734V7.06094C18.5971 6.90181 18.5339 6.7492 18.4214 6.63667C18.3089 6.52415 18.1563 6.46094 17.9971 6.46094C17.838 6.46094 17.6854 6.52415 17.5729 6.63667C17.4604 6.7492 17.3971 6.90181 17.3971 7.06094V7.53734C16.2883 7.80914 15.4609 8.80334 15.4609 9.99374C15.4616 10.6662 15.729 11.311 16.2044 11.7866C16.6799 12.2622 17.3246 12.5297 17.9971 12.5305C18.7339 12.5305 19.3333 13.1299 19.3333 13.8661C19.3333 14.6023 18.7333 15.2023 17.9971 15.2023C17.2609 15.2023 16.6609 14.6023 16.6609 13.8661C16.6609 13.707 16.5977 13.5544 16.4852 13.4419C16.3727 13.3294 16.2201 13.2661 16.0609 13.2661C15.9018 13.2661 15.7492 13.3294 15.6367 13.4419C15.5242 13.5544 15.4609 13.707 15.4609 13.8661C15.4609 15.0565 16.2889 16.0513 17.3971 16.3225V16.7995C17.3971 16.9587 17.4604 17.1113 17.5729 17.2238C17.6854 17.3363 17.838 17.3995 17.9971 17.3995C18.1563 17.3995 18.3089 17.3363 18.4214 17.2238C18.5339 17.1113 18.5971 16.9587 18.5971 16.7995Z" fill="#0D233E" stroke="#0D233E" stroke-width="0.6"/>
<path d="M15.7085 26.4331C15.648 25.02 15.0581 23.6813 14.0561 22.6831C12.9941 21.6109 11.5697 21.0211 10.0457 21.0211H6.55313C6.394 21.0211 6.24138 21.0843 6.12886 21.1968C6.01634 21.3093 5.95312 21.4619 5.95312 21.6211C5.95312 23.1355 6.54473 24.5617 7.62053 25.6369C8.14557 26.1649 8.77018 26.5836 9.45817 26.8686C10.1462 27.1535 10.8839 27.2992 11.6285 27.2971H14.8745C15.2327 27.6043 16.0559 28.1533 17.4041 28.3585V31.7977C17.4041 31.9568 17.4673 32.1094 17.5799 32.2219C17.6924 32.3344 17.845 32.3977 18.0041 32.3977C18.1633 32.3977 18.3159 32.3344 18.4284 32.2219C18.5409 32.1094 18.6041 31.9568 18.6041 31.7977V28.3573C19.9475 28.1509 20.7671 27.6037 21.1247 27.2971H24.3791C25.1239 27.2993 25.8617 27.1537 26.5498 26.8687C27.2379 26.5837 27.8626 26.165 28.3877 25.6369C28.9175 25.1111 29.3378 24.4854 29.6241 23.7961C29.9104 23.1067 30.0571 22.3675 30.0557 21.6211C30.0557 21.4619 29.9925 21.3093 29.88 21.1968C29.7675 21.0843 29.6149 21.0211 29.4557 21.0211H25.9625C24.4385 21.0211 23.0147 21.6109 21.9539 22.6813C20.9528 23.6778 20.3624 25.014 20.2997 26.4253C20.0699 26.6161 19.5317 26.9755 18.6041 27.1483V20.2243C22.9145 19.9129 26.3285 16.3153 26.3285 11.9263C26.3285 7.33506 22.5923 3.59766 17.9999 3.59766C13.4075 3.59766 9.67013 7.33446 9.67013 11.9269C9.67073 16.3177 13.0901 19.9177 17.4041 20.2249V27.1501C16.4837 26.9803 15.9449 26.6269 15.7085 26.4331ZM11.6285 26.0971C10.4345 26.0971 9.31253 25.6327 8.46892 24.7891C7.77205 24.0972 7.32338 23.1943 7.19273 22.2211H10.0457C11.2469 22.2211 12.3683 22.6849 13.2059 23.5291C13.9026 24.221 14.3511 25.1238 14.4815 26.0971H11.6285ZM22.8041 23.5279C23.2172 23.1109 23.7093 22.7806 24.2516 22.5562C24.794 22.3318 25.3756 22.2179 25.9625 22.2211H28.8155C28.6849 23.1943 28.2362 24.0972 27.5393 24.7891C27.1252 25.2052 26.6327 25.5351 26.0903 25.7596C25.5478 25.9842 24.9662 26.0989 24.3791 26.0971H21.5267C21.6577 25.1233 22.1068 24.22 22.8041 23.5279ZM10.8707 11.9269C10.8707 7.99566 14.0687 4.79766 17.9999 4.79766C21.9311 4.79766 25.1285 7.99566 25.1285 11.9269C25.1285 15.8569 21.9305 19.0549 17.9999 19.0549C14.0693 19.0549 10.8707 15.8569 10.8707 11.9269Z" fill="#0D233E" stroke="#0D233E" stroke-width="0.6"/>
</svg>
