<svg width="24" height="24" viewBox="0 0 24 24" fill="none" xmlns="http://www.w3.org/2000/svg">
<path d="M17.4707 1.47559C17.5687 1.47555 17.6651 1.50067 17.751 1.54785C17.837 1.59515 17.9104 1.6632 17.9629 1.74609C18.0154 1.82907 18.0458 1.92444 18.0518 2.02246C18.0577 2.12053 18.0392 2.21885 17.9971 2.30762L14.9502 8.74023H18.6172C18.7265 8.7402 18.8341 8.77109 18.9268 8.8291C19.0194 8.88709 19.0939 8.97006 19.1416 9.06836C19.1892 9.16672 19.2081 9.27709 19.1963 9.38574C19.1845 9.4943 19.1427 9.59778 19.0752 9.68359L9.13379 22.3008C9.05229 22.4043 8.93779 22.4776 8.80957 22.5078C8.68147 22.5379 8.54673 22.523 8.42773 22.4668C8.30869 22.4105 8.21244 22.3154 8.1543 22.1973C8.09622 22.0791 8.07936 21.945 8.10742 21.8164L9.86523 13.7285H6.38281C6.28575 13.7285 6.1898 13.7045 6.10449 13.6582C6.01911 13.6118 5.94639 13.5445 5.89355 13.4629C5.84072 13.3813 5.80919 13.2873 5.80176 13.1904C5.79441 13.0938 5.81097 12.9967 5.85059 12.9082L10.8213 1.82031C10.8672 1.7179 10.9419 1.63037 11.0361 1.56934C11.1303 1.50837 11.2404 1.47566 11.3525 1.47559H17.4707ZM7.28223 12.5635H10.5879C10.6749 12.5634 10.7613 12.5836 10.8398 12.6211C10.9183 12.6586 10.9874 12.7135 11.042 12.7812C11.0965 12.849 11.1353 12.9281 11.1553 13.0127C11.1652 13.0551 11.1706 13.0983 11.1709 13.1416L11.1572 13.2705L9.78125 19.5957L17.417 9.90527H14.0293C13.9313 9.90531 13.835 9.8802 13.749 9.83301C13.663 9.7857 13.5896 9.71768 13.5371 9.63477C13.4846 9.55177 13.4542 9.45644 13.4482 9.3584C13.4423 9.26034 13.4608 9.16201 13.5029 9.07324L16.5498 2.64062H11.7305L7.28223 12.5635Z" fill="#0D233E" stroke="#0D233E" stroke-width="0.4"/>
</svg>
