<svg width="30" height="29" viewBox="0 0 30 29" fill="none" xmlns="http://www.w3.org/2000/svg">
<path d="M14.0088 11.4795C14.2972 11.1578 14.7925 11.1314 15.1143 11.4199C15.4357 11.7085 15.4622 12.2028 15.1738 12.5244C13.9861 13.8487 11.9201 13.8442 10.7363 12.5244C10.4479 12.2028 10.4744 11.7085 10.7959 11.4199C11.1175 11.1316 11.6118 11.1581 11.9004 11.4795C12.4656 12.1098 13.4453 12.1076 14.0088 11.4795Z" fill="#0D233E" stroke="#0D233E" stroke-width="0.1"/>
<path d="M13.9316 1.89551C16.3823 1.89556 18.376 3.88915 18.376 6.33984V11.0273C18.3759 13.1188 17.1849 14.9362 15.4463 15.8398V16.3916L18.5869 17.1523C18.9282 16.7428 19.2991 16.3038 19.5986 15.915C19.2863 15.8124 19.0596 15.5216 19.0596 15.1748C19.0597 14.7429 19.4099 14.3927 19.8418 14.3926H20.0713C20.0189 14.2641 19.949 14.1474 19.8584 14.0449C19.718 13.8862 19.6016 13.8253 19.4941 13.7637C19.3833 13.7001 19.2809 13.6357 19.1855 13.4707C18.6583 12.5576 19.3181 11.418 20.3711 11.418H23.4678C23.962 11.4181 24.4051 11.6736 24.6523 12.1016C24.8538 12.4505 24.8759 12.829 24.792 13.1416C24.709 13.4504 24.5199 13.7036 24.2891 13.7959L24.1973 13.8496C24.0791 13.9293 23.8884 14.0971 23.7686 14.3926H24.2363C24.6683 14.3926 25.0184 14.7428 25.0186 15.1748C25.0186 15.5968 24.6848 15.9402 24.2666 15.9561C24.5739 16.3528 24.9452 16.79 25.334 17.2578C25.7481 17.7561 26.1816 18.2887 26.5752 18.8428C27.3614 19.9496 27.995 21.1495 27.9951 22.3369C27.9951 23.6339 27.5999 24.779 26.6865 25.6094C25.7745 26.4385 24.3526 26.9472 22.3115 26.9902C22.2761 26.9942 22.4416 26.9952 20.2383 26.9951C18.0139 26.995 13.3744 26.9944 3.67773 26.9951C3.24574 26.9951 2.89569 26.6448 2.89551 26.2129V22.2285C2.89569 19.8707 4.49633 17.8368 6.78809 17.2822L10.4639 16.3916V15.8398C8.72515 14.9363 7.53423 13.1189 7.53418 11.0273V6.33789C7.5342 3.88816 9.52687 1.89551 11.9766 1.89551H13.9316ZM21.4521 15.958C21.2328 16.3629 20.8759 16.8341 20.4639 17.3408C20.0409 17.861 19.5618 18.4185 19.1074 18.9922C18.6536 19.5652 18.2279 20.1503 17.916 20.7188C17.604 21.2876 17.4083 21.8356 17.4082 22.3369C17.4082 22.9655 17.5329 23.4711 17.7568 23.876C17.9807 24.2806 18.3049 24.5883 18.709 24.8184C19.5195 25.2797 20.6492 25.4297 21.9189 25.4297C23.1864 25.4297 24.3158 25.2803 25.127 24.8193C25.5315 24.5894 25.8568 24.2818 26.0811 23.877C26.3053 23.472 26.4307 22.966 26.4307 22.3369C26.4305 21.8357 26.2342 21.288 25.9219 20.7197C25.6096 20.1517 25.1837 19.5668 24.7295 18.9941C24.2745 18.4206 23.7944 17.8635 23.3711 17.3428C22.959 16.8358 22.6027 16.3643 22.3838 15.958H21.4521ZM15.4463 18.8398C15.4462 19.2718 15.096 19.622 14.6641 19.6221H11.2461C10.8141 19.6221 10.464 19.2718 10.4639 18.8398V18.002L7.15625 18.8027C5.56904 19.1868 4.46017 20.5955 4.45996 22.2285V25.4297H16.9717C16.2282 24.6535 15.8428 23.607 15.8428 22.3369C15.843 21.0288 16.6131 19.7027 17.5098 18.502L15.4463 18.002V18.8398ZM13.8818 16.3672C13.253 16.4761 12.6253 16.4705 12.0283 16.3672V18.0576H13.8818V16.3672ZM11.4209 7.77344C10.7309 8.23126 9.93653 8.52114 9.09863 8.6084V11.0273C9.0987 13.1535 10.8289 14.8838 12.9551 14.8838C15.0812 14.8837 16.8115 13.1535 16.8115 11.0273V8.51562C16.5141 8.61925 16.2939 8.64302 15.7305 8.64258C15.2776 8.64222 14.6019 8.62783 13.4814 8.62988L12.2041 8.63867C11.772 8.63867 11.4209 8.28757 11.4209 7.85547V7.77344ZM21.0039 12.9824C21.2972 13.3024 21.5815 13.7606 21.6934 14.3926H22.1445C22.2563 13.7605 22.5406 13.3024 22.834 12.9824H21.0039ZM11.9766 3.45996C10.3898 3.45996 9.09865 4.75114 9.09863 6.33789V7.03125C10.0901 6.88211 10.9836 6.3276 11.5557 5.48145C11.9866 4.84392 12.986 5.14998 12.9863 5.91895V7.07324H16.0771C16.4816 7.07324 16.8115 6.74433 16.8115 6.33984C16.8115 4.7521 15.5194 3.46004 13.9316 3.45996H11.9766Z" fill="#0D233E" stroke="#0D233E" stroke-width="0.1"/>
</svg>
