<svg width="24" height="24" viewBox="0 0 24 24" fill="none" xmlns="http://www.w3.org/2000/svg">
<path d="M19.7171 8.12219L15.8722 4.27734C15.8005 4.20961 15.7057 4.17188 15.6071 4.17188C15.5085 4.17188 15.4136 4.20961 15.3419 4.27734C15.2525 4.36242 15.1338 4.40987 15.0104 4.40987C14.887 4.40987 14.7683 4.36242 14.6789 4.27734C14.6072 4.20961 14.5124 4.17188 14.4138 4.17188C14.3152 4.17188 14.2203 4.20961 14.1486 4.27734L5.00051 13.4255C4.93019 13.4958 4.89066 13.5911 4.89063 13.6906C4.89059 13.79 4.93005 13.8854 5.00033 13.9557C5.08809 14.0437 5.13738 14.163 5.13738 14.2873C5.13738 14.4115 5.08809 14.5308 5.00033 14.6188C4.93005 14.6891 4.89059 14.7845 4.89063 14.8839C4.89066 14.9834 4.93019 15.0787 5.00051 15.149L8.84535 18.9939C8.91568 19.0642 9.01102 19.1037 9.11045 19.1037C9.20988 19.1037 9.30525 19.0643 9.37563 18.9941C9.46359 18.9062 9.58282 18.8569 9.70714 18.8569C9.83146 18.8569 9.95069 18.9062 10.0387 18.9941C10.109 19.0643 10.2044 19.1038 10.3038 19.1038C10.4033 19.1037 10.4986 19.0642 10.5689 18.9939L19.7171 9.84577C19.7868 9.77517 19.826 9.6799 19.826 9.58064C19.826 9.48137 19.7868 9.3861 19.7171 9.3155C19.6294 9.22741 19.5803 9.10822 19.5803 8.98399C19.5803 8.85975 19.6294 8.74056 19.7171 8.65247C19.7868 8.58187 19.826 8.4866 19.826 8.38733C19.826 8.28807 19.7868 8.1928 19.7171 8.12219ZM18.963 9.53906L10.262 18.2402C10.0901 18.1529 9.89999 18.1073 9.70714 18.1073C9.51429 18.1073 9.32416 18.1529 9.15224 18.2402L5.75416 14.8422C5.84155 14.6702 5.8871 14.4801 5.8871 14.2873C5.8871 14.0944 5.84155 13.9043 5.75416 13.7324L14.4553 5.03137C14.6279 5.11692 14.8178 5.16142 15.0104 5.16142C15.203 5.16142 15.393 5.11692 15.5655 5.03137L18.963 8.42891C18.8761 8.60104 18.8308 8.79117 18.8308 8.98399C18.8308 9.17681 18.8761 9.36694 18.963 9.53906Z" fill="white"/>
<path d="M22.1698 8.18662L15.806 1.82278C15.5917 1.61811 15.3068 1.50391 15.0105 1.50391C14.7141 1.50391 14.4292 1.61811 14.215 1.82278L2.54749 13.4899C2.33693 13.7011 2.21872 13.9872 2.21875 14.2854C2.21878 14.5837 2.33707 14.8697 2.54768 15.0809L8.91169 21.4449C9.12287 21.6555 9.40895 21.7738 9.70719 21.7738C10.0054 21.7738 10.2915 21.6555 10.5027 21.4449L22.1698 9.77762C22.2743 9.67316 22.3572 9.54915 22.4137 9.41265C22.4703 9.27616 22.4994 9.12986 22.4994 8.98212C22.4994 8.83437 22.4703 8.68807 22.4137 8.55158C22.3572 8.41508 22.2743 8.29107 22.1698 8.18662ZM21.6395 9.24734L9.9724 20.9145C9.902 20.9847 9.80664 21.0241 9.70721 21.0241C9.60779 21.0242 9.5124 20.9848 9.44195 20.9146L3.07793 14.5506C3.00775 14.4802 2.96834 14.3848 2.96834 14.2854C2.96834 14.186 3.00775 14.0906 3.07793 14.0202L14.7452 2.35306C14.8128 2.28553 14.9035 2.2463 14.9989 2.24337C15.0944 2.24044 15.1874 2.27403 15.2589 2.33729C15.283 2.35274 21.4877 8.57402 21.6376 8.71499C21.7007 8.78179 21.7398 8.86772 21.7487 8.95921C21.7521 9.01224 21.744 9.06538 21.7252 9.11507C21.7064 9.16476 21.6772 9.20986 21.6395 9.24734Z" fill="white"/>
<path d="M12.3594 9.38513C11.9144 9.38513 11.4794 9.51709 11.1093 9.76432C10.7393 10.0116 10.4509 10.363 10.2807 10.7741C10.1104 11.1852 10.0658 11.6376 10.1526 12.0741C10.2394 12.5105 10.4537 12.9115 10.7684 13.2261C11.0831 13.5408 11.484 13.7551 11.9204 13.8419C12.3569 13.9287 12.8093 13.8842 13.2204 13.7139C13.6316 13.5436 13.983 13.2552 14.2302 12.8852C14.4774 12.5152 14.6094 12.0801 14.6094 11.6351C14.6087 11.0386 14.3715 10.4667 13.9497 10.0449C13.5278 9.62304 12.9559 9.38578 12.3594 9.38513ZM12.3594 13.1351C12.0627 13.1351 11.7727 13.0472 11.526 12.8823C11.2794 12.7175 11.0871 12.4832 10.9736 12.2092C10.86 11.9351 10.8303 11.6335 10.8882 11.3425C10.9461 11.0515 11.0889 10.7843 11.2987 10.5745C11.5085 10.3647 11.7758 10.2218 12.0667 10.164C12.3577 10.1061 12.6593 10.1358 12.9334 10.2493C13.2075 10.3628 13.4418 10.5551 13.6066 10.8018C13.7714 11.0484 13.8594 11.3385 13.8594 11.6351C13.8589 12.0328 13.7007 12.4141 13.4195 12.6953C13.1383 12.9765 12.7571 13.1347 12.3594 13.1351ZM15.5414 7.32812C15.3189 7.32812 15.1014 7.3941 14.9164 7.51772C14.7314 7.64134 14.5872 7.81704 14.502 8.02261C14.4169 8.22817 14.3946 8.45437 14.438 8.6726C14.4814 8.89083 14.5886 9.09129 14.7459 9.24862C14.9032 9.40595 15.1037 9.5131 15.3219 9.55651C15.5401 9.59992 15.7663 9.57764 15.9719 9.49249C16.1775 9.40734 16.3532 9.26315 16.4768 9.07814C16.6004 8.89314 16.6664 8.67563 16.6664 8.45312C16.6661 8.15486 16.5474 7.8689 16.3365 7.65799C16.1256 7.44708 15.8397 7.32845 15.5414 7.32812ZM15.5414 8.82812C15.4672 8.82812 15.3947 8.80613 15.333 8.76493C15.2714 8.72372 15.2233 8.66515 15.1949 8.59663C15.1665 8.52811 15.1591 8.45271 15.1736 8.37997C15.1881 8.30722 15.2238 8.2404 15.2762 8.18796C15.3287 8.13551 15.3955 8.0998 15.4682 8.08533C15.541 8.07086 15.6164 8.07829 15.6849 8.10667C15.7534 8.13505 15.812 8.18312 15.8532 8.24479C15.8944 8.30645 15.9164 8.37896 15.9164 8.45312C15.9163 8.55254 15.8767 8.64785 15.8064 8.71815C15.7361 8.78845 15.6408 8.828 15.5414 8.82812ZM9.17737 13.6921C8.95487 13.6921 8.73736 13.7581 8.55236 13.8817C8.36735 14.0054 8.22316 14.1811 8.13801 14.3866C8.05286 14.5922 8.03058 14.8184 8.07399 15.0366C8.1174 15.2548 8.22455 15.4553 8.38188 15.6126C8.53921 15.77 8.73967 15.8771 8.9579 15.9205C9.17613 15.9639 9.40233 15.9417 9.60789 15.8565C9.81346 15.7714 9.98916 15.6272 10.1128 15.4422C10.2364 15.2571 10.3024 15.0396 10.3024 14.8171C10.302 14.5189 10.1834 14.2329 9.97251 14.022C9.7616 13.8111 9.47564 13.6925 9.17737 13.6921ZM9.17737 15.1921C9.10321 15.1921 9.0307 15.1701 8.96904 15.1289C8.90737 15.0877 8.8593 15.0292 8.83092 14.9606C8.80254 14.8921 8.79511 14.8167 8.80958 14.744C8.82405 14.6712 8.85976 14.6044 8.91221 14.552C8.96465 14.4995 9.03147 14.4638 9.10421 14.4493C9.17696 14.4349 9.25236 14.4423 9.32088 14.4707C9.3894 14.4991 9.44797 14.5471 9.48917 14.6088C9.53038 14.6705 9.55237 14.743 9.55237 14.8171C9.55225 14.9166 9.51269 15.0119 9.4424 15.0822C9.3721 15.1525 9.27679 15.192 9.17737 15.1921ZM4.0755 19.9234C4.04071 19.8885 3.99939 19.8609 3.9539 19.842C3.90841 19.8231 3.85965 19.8133 3.81039 19.8133C3.76113 19.8132 3.71234 19.8229 3.66682 19.8417C3.62129 19.8605 3.57991 19.8881 3.54505 19.9229L1.60999 21.8541C1.54006 21.9244 1.50085 22.0196 1.50096 22.1189C1.50106 22.2181 1.54046 22.3132 1.61054 22.3834C1.68062 22.4536 1.77567 22.4932 1.87488 22.4936C1.97409 22.4939 2.06938 22.4549 2.1399 22.3851L4.07495 20.4538C4.14533 20.3836 4.18492 20.2882 4.18502 20.1887C4.18512 20.0893 4.14573 19.9938 4.0755 19.9234ZM5.9505 20.2986C5.91574 20.2637 5.87445 20.236 5.82898 20.2171C5.78351 20.1982 5.73477 20.1884 5.68552 20.1883C5.63628 20.1883 5.5875 20.1979 5.54198 20.2167C5.49646 20.2355 5.45509 20.2631 5.42023 20.2978L3.86018 21.8541C3.82504 21.8888 3.79711 21.9301 3.77799 21.9756C3.75886 22.0212 3.74892 22.07 3.74874 22.1194C3.74855 22.1688 3.75813 22.2177 3.77691 22.2634C3.79569 22.3091 3.82332 22.3506 3.85819 22.3856C3.89307 22.4206 3.93451 22.4483 3.98014 22.4672C4.02576 22.4861 4.07468 22.4958 4.12407 22.4958C4.17346 22.4957 4.22235 22.4859 4.26794 22.4669C4.31353 22.4479 4.35492 22.4201 4.38972 22.3851L5.94978 20.8288C5.98466 20.7941 6.01234 20.7528 6.03125 20.7073C6.05017 20.6619 6.05994 20.6131 6.06 20.5639C6.06007 20.5146 6.05043 20.4658 6.03164 20.4203C6.01286 20.3748 5.98528 20.3334 5.9505 20.2986ZM6.91987 21.0482L6.11347 21.8544C6.07865 21.8893 6.05103 21.9306 6.03219 21.9761C6.01335 22.0216 6.00365 22.0703 6.00365 22.1196C6.00365 22.1688 6.01335 22.2176 6.03219 22.2631C6.05103 22.3086 6.07865 22.3499 6.11347 22.3847C6.14829 22.4195 6.18962 22.4471 6.23512 22.466C6.28061 22.4848 6.32937 22.4945 6.37861 22.4945C6.42785 22.4945 6.47661 22.4848 6.5221 22.466C6.56759 22.4471 6.60892 22.4195 6.64374 22.3847L7.45014 21.5785C7.48496 21.5437 7.51258 21.5023 7.53142 21.4568C7.55026 21.4114 7.55996 21.3626 7.55996 21.3134C7.55996 21.2641 7.55026 21.2154 7.53142 21.1699C7.51258 21.1244 7.48496 21.083 7.45014 21.0482C7.41532 21.0134 7.37399 20.9858 7.3285 20.9669C7.283 20.9481 7.23424 20.9384 7.185 20.9384C7.13576 20.9384 7.087 20.9481 7.04151 20.9669C6.99602 20.9858 6.95468 21.0134 6.91987 21.0482ZM1.87493 20.2446C1.9241 20.2447 1.9728 20.235 2.01824 20.2162C2.06368 20.1974 2.10496 20.1699 2.1397 20.1351L3.69976 18.5789C3.77 18.5086 3.80948 18.4133 3.80954 18.314C3.8096 18.2146 3.77023 18.1193 3.70008 18.049C3.62993 17.9786 3.53473 17.939 3.43539 17.9388C3.33604 17.9386 3.24067 17.9778 3.17022 18.0479L1.61018 19.6041C1.55765 19.6565 1.52184 19.7233 1.50729 19.796C1.49274 19.8688 1.5001 19.9442 1.52845 20.0128C1.55679 20.0814 1.60484 20.14 1.66652 20.1813C1.7282 20.2225 1.80073 20.2446 1.87493 20.2446ZM1.87493 17.9982C1.92418 17.9983 1.97296 17.9886 2.01846 17.9698C2.06396 17.9509 2.10528 17.9232 2.14006 17.8884L2.95012 17.0785C3.02044 17.0082 3.05994 16.9128 3.05994 16.8133C3.05994 16.7139 3.02044 16.6185 2.95012 16.5482C2.8798 16.4779 2.78443 16.4384 2.68498 16.4384C2.58554 16.4384 2.49016 16.4779 2.41984 16.5482L1.60981 17.3581C1.55737 17.4105 1.52167 17.4773 1.5072 17.5501C1.49274 17.6228 1.50016 17.6982 1.52854 17.7667C1.55692 17.8352 1.60497 17.8938 1.66663 17.935C1.72828 17.9762 1.80077 17.9982 1.87493 17.9982Z" fill="white"/>
</svg>
