<svg width="36" height="36" viewBox="0 0 36 36" fill="none" xmlns="http://www.w3.org/2000/svg">
<path d="M17.2494 34.1256C16.0644 34.1256 14.9394 33.5106 14.1594 32.4606L12.6294 30.4506C12.3144 30.0306 11.8944 29.7906 11.4444 29.7606C11.0094 29.7306 10.5444 29.9406 10.1694 30.3156C8.87943 31.6956 7.61936 32.3556 6.43436 32.3256C5.62436 32.2956 4.91936 31.9356 4.37936 31.2756C4.31936 31.2006 4.25939 31.0956 4.21439 30.9906C3.62939 29.7306 3.35938 28.0206 3.35938 25.4556V10.5756C3.35938 8.01063 3.62939 6.31563 4.21439 5.04063C4.25939 4.95063 4.30436 4.86063 4.37936 4.78563C4.90436 4.11063 5.60943 3.75063 6.41943 3.70563C7.61943 3.66063 8.89442 4.35063 10.1544 5.70063C10.5294 6.10563 10.9794 6.30063 11.4294 6.27063C11.8794 6.24063 12.2993 6.00063 12.6143 5.58063L14.1444 3.55563C14.9244 2.50563 16.0494 1.89062 17.2344 1.89062C18.4194 1.89062 19.5444 2.50563 20.3244 3.55563L21.8394 5.56563C22.1544 6.00063 22.5894 6.24063 23.0544 6.27063C23.4894 6.30063 23.9543 6.09063 24.3293 5.70063C25.5593 4.38063 26.7744 3.70563 27.9444 3.70563C28.7844 3.70563 29.5644 4.08063 30.1044 4.78563C30.1644 4.86063 30.2244 4.95063 30.2694 5.05563C30.8544 6.31563 31.1244 8.02563 31.1244 10.5906V25.4706C31.1244 28.0356 30.8544 29.7306 30.2694 31.0056C30.2094 31.1406 30.1344 31.2606 30.0294 31.3656C29.5644 31.9656 28.7994 32.3406 27.9444 32.3406C26.7744 32.3406 25.5593 31.6656 24.3293 30.3456C23.9693 29.9556 23.4744 29.7456 23.0544 29.7756C22.5894 29.8056 22.1694 30.0456 21.8394 30.4806L20.3244 32.4906C19.5594 33.5106 18.4344 34.1256 17.2494 34.1256ZM11.3694 27.4956C11.4294 27.4956 11.5044 27.4956 11.5644 27.4956C12.6744 27.5556 13.7094 28.1406 14.4144 29.0856L15.9444 31.1106C16.6794 32.1006 17.7894 32.1006 18.5244 31.1256L20.0394 29.1156C20.7594 28.1556 21.8094 27.5856 22.9194 27.5256C24.0294 27.4656 25.1394 27.9306 25.9494 28.8006C27.0594 29.9856 27.7344 30.0756 27.9144 30.0756C28.0344 30.0756 28.1394 30.0456 28.2444 29.9556C28.6644 29.0106 28.8444 27.5856 28.8444 25.4556V10.5756C28.8444 8.47563 28.6494 7.05063 28.2444 6.10563C28.1244 5.97063 28.0044 5.95563 27.9144 5.95563C27.7344 5.95563 27.0594 6.04563 25.9494 7.23063C25.1394 8.10063 24.0294 8.56562 22.9194 8.50562C21.7944 8.44562 20.7444 7.86063 20.0244 6.91563L18.5094 4.90563C17.7744 3.91563 16.6644 3.91563 15.9294 4.90563L14.3994 6.94563C13.6944 7.89063 12.6594 8.46063 11.5494 8.52063C10.4394 8.58063 9.32938 8.11563 8.51938 7.26063C7.60438 6.27063 6.89943 5.94063 6.50943 5.95563C6.41943 5.95563 6.3144 5.98563 6.1944 6.10563C5.7894 7.05063 5.59436 8.47563 5.59436 10.5756V25.4556C5.59436 27.5706 5.7894 28.9956 6.1944 29.9406C6.3294 30.0606 6.41943 30.0756 6.50943 30.0906C6.88443 30.1056 7.58936 29.7756 8.50436 28.8006C9.29936 27.9456 10.3344 27.4956 11.3694 27.4956Z" fill="#0D233E"/>
<path d="M24 16.5H12C11.385 16.5 10.875 15.99 10.875 15.375C10.875 14.76 11.385 14.25 12 14.25H24C24.615 14.25 25.125 14.76 25.125 15.375C25.125 15.99 24.615 16.5 24 16.5Z" fill="#0D233E"/>
<path d="M21 21.75H12C11.385 21.75 10.875 21.24 10.875 20.625C10.875 20.01 11.385 19.5 12 19.5H21C21.615 19.5 22.125 20.01 22.125 20.625C22.125 21.24 21.615 21.75 21 21.75Z" fill="#0D233E"/>
</svg>
