<svg width="24" height="24" viewBox="0 0 24 24" fill="none" xmlns="http://www.w3.org/2000/svg">
<path d="M21.6959 20.2168L16.7656 15.2662C18.0332 13.8113 18.7278 11.9807 18.7278 10.075C18.7278 5.62251 14.9757 2 10.3639 2C5.75212 2 2 5.62251 2 10.075C2 14.5275 5.75212 18.15 10.3639 18.15C12.0952 18.15 13.7451 17.6458 15.1557 16.6888L20.1235 21.677C20.3311 21.8852 20.6104 22 20.9097 22C21.193 22 21.4617 21.8957 21.6657 21.7061C22.0992 21.3034 22.113 20.6357 21.6959 20.2168ZM10.3639 4.10652C13.7727 4.10652 16.5459 6.78391 16.5459 10.075C16.5459 13.3661 13.7727 16.0435 10.3639 16.0435C6.95507 16.0435 4.18189 13.3661 4.18189 10.075C4.18189 6.78391 6.95507 4.10652 10.3639 4.10652Z" fill="#FDFDFD"/>
</svg>
