<svg width="36" height="36" viewBox="0 0 36 36" fill="none" xmlns="http://www.w3.org/2000/svg">
<path d="M21.3303 32.446C19.5603 32.446 17.0553 31.201 15.0753 25.246L13.9953 22.006L10.7553 20.926C4.81531 18.946 3.57031 16.441 3.57031 14.671C3.57031 12.916 4.81531 10.396 10.7553 8.40096L23.4903 4.15596C26.6703 3.09096 29.3253 3.40596 30.9603 5.02596C32.5953 6.64596 32.9103 9.31596 31.8453 12.496L27.6003 25.231C25.6053 31.201 23.1003 32.446 21.3303 32.446ZM11.4603 10.546C7.29031 11.941 5.80531 13.591 5.80531 14.671C5.80531 15.751 7.29031 17.401 11.4603 18.781L15.2403 20.041C15.5703 20.146 15.8403 20.416 15.9453 20.746L17.2053 24.526C18.5853 28.696 20.2503 30.181 21.3303 30.181C22.4103 30.181 24.0603 28.696 25.4553 24.526L29.7003 11.791C30.4653 9.48096 30.3303 7.59096 29.3553 6.61596C28.3803 5.64096 26.4903 5.52096 24.1953 6.28596L11.4603 10.546Z" fill="#0D233E"/>
<path d="M15.1642 21.6C14.8792 21.6 14.5942 21.495 14.3692 21.27C13.9342 20.835 13.9342 20.115 14.3692 19.68L19.7392 14.295C20.1742 13.86 20.8942 13.86 21.3292 14.295C21.7642 14.73 21.7642 15.45 21.3292 15.885L15.9592 21.27C15.7492 21.495 15.4492 21.6 15.1642 21.6Z" fill="#0D233E"/>
</svg>
