<svg width="36" height="36" viewBox="0 0 36 36" fill="none" xmlns="http://www.w3.org/2000/svg">
<path d="M5.72949 18.3938L9.532 21.3751C9.7387 21.5424 9.88934 21.7689 9.96373 22.0243C10.0381 22.2796 10.0327 22.5516 9.94825 22.8038L8.58699 27.3038C8.35898 28.0255 8.36574 28.801 8.6063 29.5186C8.84685 30.2362 9.30882 30.8591 9.92574 31.2976C10.4982 31.6987 11.1843 31.9054 11.8831 31.8871C12.5818 31.8689 13.2563 31.6267 13.807 31.1963L17.362 28.4513C17.5455 28.309 17.7711 28.2318 18.0032 28.2318C18.2354 28.2318 18.461 28.309 18.6445 28.4513L22.1995 31.1963C22.7487 31.6301 23.4236 31.8744 24.1233 31.8927C24.8229 31.9109 25.5097 31.7022 26.0807 31.2976C26.6977 30.8591 27.1596 30.2362 27.4002 29.5186C27.6408 28.801 27.6475 28.0255 27.4195 27.3038L26.0582 22.8038C25.9757 22.5524 25.9701 22.2821 26.0423 22.0275C26.1144 21.7729 26.261 21.5457 26.4632 21.3751L30.277 18.3488C30.8595 17.8876 31.2818 17.2545 31.4837 16.5396C31.6857 15.8246 31.6571 15.0641 31.402 14.3663C31.1813 13.6972 30.7567 13.114 30.1877 12.6984C29.6188 12.2827 28.934 12.0556 28.2295 12.0488H23.6282C23.3843 12.0419 23.1493 11.9559 22.9585 11.8037C22.7677 11.6515 22.6317 11.4414 22.5707 11.2051L21.2095 6.91881C20.9876 6.24358 20.5581 5.65566 19.9824 5.23885C19.4066 4.82205 18.714 4.59766 18.0032 4.59766C17.2925 4.59766 16.5999 4.82205 16.0241 5.23885C15.4484 5.65566 15.0189 6.24358 14.797 6.91881L13.4357 11.2501C13.3748 11.4864 13.2387 11.6965 13.048 11.8487C12.8572 12.0009 12.6222 12.0869 12.3782 12.0938H7.78824C7.08371 12.1006 6.39896 12.3277 5.83002 12.7434C5.26108 13.159 4.83648 13.7422 4.61574 14.4113C4.3594 15.108 4.32904 15.8677 4.52897 16.5826C4.7289 17.2975 5.14895 17.9312 5.72949 18.3938ZM6.75324 15.1426C6.82167 14.9164 6.95956 14.7176 7.14736 14.5742C7.33515 14.4308 7.56332 14.3502 7.79949 14.3438H12.3782C13.1013 14.3373 13.8031 14.0987 14.3803 13.6633C14.9575 13.2278 15.3797 12.6185 15.5845 11.9251L16.9457 7.59381C17.0246 7.37663 17.1684 7.18899 17.3576 7.05638C17.5468 6.92377 17.7722 6.85263 18.0032 6.85263C18.2343 6.85263 18.4597 6.92377 18.6489 7.05638C18.8381 7.18899 18.9819 7.37663 19.0607 7.59381L20.422 11.9251C20.6268 12.6185 21.049 13.2278 21.6262 13.6633C22.2034 14.0987 22.9052 14.3373 23.6282 14.3438H28.2182C28.4544 14.3502 28.6826 14.4308 28.8704 14.5742C29.0582 14.7176 29.1961 14.9164 29.2645 15.1426C29.3662 15.3997 29.3828 15.6826 29.3119 15.9498C29.2411 16.2171 29.0864 16.4546 28.8707 16.6276L25.0682 19.6538C24.5183 20.1122 24.1175 20.7242 23.9171 21.4116C23.7167 22.0989 23.7258 22.8304 23.9432 23.5126L25.3045 28.0126C25.3767 28.2784 25.3621 28.5603 25.263 28.8173C25.1638 29.0742 24.9853 29.2929 24.7532 29.4413C24.5786 29.5791 24.3626 29.654 24.1401 29.654C23.9177 29.654 23.7017 29.5791 23.527 29.4413L19.972 26.7076C19.3983 26.255 18.6889 26.0089 17.9582 26.0089C17.2276 26.0089 16.5182 26.255 15.9445 26.7076L12.3895 29.4413C12.2148 29.5791 11.9988 29.654 11.7764 29.654C11.5539 29.654 11.3379 29.5791 11.1632 29.4413C10.9362 29.2794 10.7675 29.0485 10.6823 28.7829C10.5972 28.5173 10.6001 28.2313 10.6907 27.9676L12.052 23.4676C12.2694 22.7854 12.2786 22.0539 12.0782 21.3666C11.8778 20.6792 11.477 20.0672 10.927 19.6088L7.13574 16.6276C6.92199 16.4532 6.76958 16.215 6.70077 15.9478C6.63196 15.6807 6.65034 15.3985 6.75324 15.1426Z" fill="#0D233E"/>
</svg>
