<svg width="24" height="24" viewBox="0 0 24 24" fill="none" xmlns="http://www.w3.org/2000/svg">
<path d="M20.0908 3.01465C20.3272 2.96595 20.5789 3.03762 20.7705 3.22949C21.043 3.50256 21.0716 3.89676 20.8584 4.19629L15.6123 20.4639C15.5359 20.732 15.2677 20.9619 14.9619 20.9619C14.9239 21 14.9239 21 14.8857 21C14.6183 21 14.3892 20.8468 14.2363 20.6172L10.2617 13.7236L3.38184 9.74023C3.11456 9.58701 3 9.31894 3 9.0127C3.03824 8.70636 3.22957 8.47621 3.49707 8.36133L19.9688 3.03809C20.0087 3.02665 20.0497 3.01938 20.0908 3.01465ZM11.7646 13.29L14.7324 18.4336L18.5342 6.5332L11.7646 13.29ZM5.59863 9.28125L10.6611 12.2139L17.4961 5.41895L5.59863 9.28125Z" fill="#0D233E"/>
<path d="M20.0908 3.01465C20.3272 2.96595 20.5789 3.03762 20.7705 3.22949C21.043 3.50256 21.0716 3.89676 20.8584 4.19629L15.6123 20.4639C15.5359 20.732 15.2677 20.9619 14.9619 20.9619C14.9239 21 14.9239 21 14.8857 21C14.6183 21 14.3892 20.8468 14.2363 20.6172L10.2617 13.7236L3.38184 9.74023C3.11456 9.58701 3 9.31894 3 9.0127C3.03824 8.70636 3.22957 8.47621 3.49707 8.36133L19.9688 3.03809C20.0087 3.02665 20.0497 3.01938 20.0908 3.01465ZM11.7646 13.29L14.7324 18.4336L18.5342 6.5332L11.7646 13.29ZM5.59863 9.28125L10.6611 12.2139L17.4961 5.41895L5.59863 9.28125Z" stroke="white"/>
</svg>
